<?xml version="1.0" encoding="UTF-8" standalone="no"?>
<!-- Created with Inkscape (http://www.inkscape.org/) -->

<svg
   xmlns:dc="http://purl.org/dc/elements/1.1/"
   xmlns:cc="http://creativecommons.org/ns#"
   xmlns:rdf="http://www.w3.org/1999/02/22-rdf-syntax-ns#"
   xmlns:svg="http://www.w3.org/2000/svg"
   xmlns="http://www.w3.org/2000/svg"
   xmlns:sodipodi="http://sodipodi.sourceforge.net/DTD/sodipodi-0.dtd"
   xmlns:inkscape="http://www.inkscape.org/namespaces/inkscape"
   width="50"
   height="75"
   id="svg2"
   version="1.1"
   inkscape:version="0.48.4 r9939"
   sodipodi:docname="marker.svg">
  <defs
     id="defs4" />
  <sodipodi:namedview
     id="base"
     pagecolor="#ffffff"
     bordercolor="#666666"
     borderopacity="1.0"
     inkscape:pageopacity="0.0"
     inkscape:pageshadow="2"
     inkscape:zoom="4.3375038"
     inkscape:cx="26.051673"
     inkscape:cy="27.058333"
     inkscape:document-units="px"
     inkscape:current-layer="layer1"
     showgrid="false"
     fit-margin-top="0"
     fit-margin-left="0"
     fit-margin-right="0"
     fit-margin-bottom="0"
     inkscape:window-width="1600"
     inkscape:window-height="837"
     inkscape:window-x="-8"
     inkscape:window-y="-8"
     inkscape:window-maximized="1">
    <inkscape:grid
       type="xygrid"
       id="grid2985"
       empspacing="5"
       visible="true"
       enabled="true"
       snapvisiblegridlinesonly="true"
       originx="-200px"
       originy="-644.98718px" />
  </sodipodi:namedview>
  <metadata
     id="metadata7">
    <rdf:RDF>
      <cc:Work
         rdf:about="">
        <dc:format>image/svg+xml</dc:format>
        <dc:type
           rdf:resource="http://purl.org/dc/dcmitype/StillImage" />
        <dc:title></dc:title>
      </cc:Work>
    </rdf:RDF>
  </metadata>
  <g
     inkscape:label="Layer 1"
     inkscape:groupmode="layer"
     id="layer1"
     transform="translate(-200,-332.375)">
    <path
       style="fill:#ff6600;fill-opacity:1;fill-rule:nonzero;stroke:none"
       d="m 225,332.375 c -13.8071,0 -25,11.1929 -25,25 0,13.80715 20,50 25,50 5,0 25,-36.19285 25,-50 0,-13.8071 -11.1929,-25 -25,-25 z m 0,10 c 8.28427,0 15,6.71573 15,15 0,8.28427 -6.71573,15 -15,15 -8.28427,0 -15,-6.71573 -15,-15 0,-8.28427 6.71573,-15 15,-15 z"
       id="path2987"
       inkscape:connector-curvature="0" />
    <g
       id="g3999"
       transform="matrix(0.17254959,0,0,0.17254959,87.64736,274.26506)">
      <rect
         transform="matrix(0.70710678,-0.70710678,0.70710678,0.70710678,0,0)"
         y="853.32117"
         x="162.41579"
         height="21.388683"
         width="21.388683"
         id="rect4241-6-6"
         style="fill:#005c94;fill-opacity:1;fill-rule:nonzero;stroke:none" />
      <rect
         transform="matrix(0.70710678,-0.70710678,0.70710678,0.70710678,0,0)"
         y="853.32117"
         x="185.86903"
         height="21.388683"
         width="21.388683"
         id="rect4241-2-5-3"
         style="fill:#002255;fill-opacity:1;fill-rule:nonzero;stroke:none" />
      <rect
         transform="matrix(0.70710678,-0.70710678,0.70710678,0.70710678,0,0)"
         y="853.32117"
         x="209.32227"
         height="21.388683"
         width="21.388683"
         id="rect4241-2-3-0-7"
         style="fill:#005c94;fill-opacity:1;fill-rule:nonzero;stroke:none" />
      <rect
         transform="matrix(0.70710678,-0.70710678,0.70710678,0.70710678,0,0)"
         y="876.77441"
         x="162.41579"
         height="21.388683"
         width="21.388683"
         id="rect4241-3-9-8"
         style="fill:#005c94;fill-opacity:1;fill-rule:nonzero;stroke:none" />
      <rect
         transform="matrix(0.70710678,-0.70710678,0.70710678,0.70710678,0,0)"
         y="876.77441"
         x="185.86905"
         height="21.388683"
         width="21.388683"
         id="rect4241-2-4-0-8"
         style="fill:#002255;fill-opacity:1;fill-rule:nonzero;stroke:none" />
      <rect
         transform="matrix(0.70710678,-0.70710678,0.70710678,0.70710678,0,0)"
         y="876.77441"
         x="209.32227"
         height="21.388683"
         width="21.388683"
         id="rect4241-2-3-1-0-2"
         style="fill:#005c94;fill-opacity:1;fill-rule:nonzero;stroke:none" />
      <rect
         transform="matrix(0.70710678,-0.70710678,0.70710678,0.70710678,0,0)"
         y="900.22766"
         x="185.86905"
         height="21.388683"
         width="21.388683"
         id="rect4241-2-4-8-3-9"
         style="fill:#002255;fill-opacity:1;fill-rule:nonzero;stroke:none" />
      <rect
         transform="matrix(0.70710678,-0.70710678,0.70710678,0.70710678,0,0)"
         y="900.22766"
         x="209.32227"
         height="21.388683"
         width="21.388683"
         id="rect4241-2-3-1-7-8-1"
         style="fill:#002255;fill-opacity:1;fill-rule:nonzero;stroke:none" />
      <rect
         transform="matrix(0.70710678,-0.70710678,0.70710678,0.70710678,0,0)"
         y="876.77441"
         x="232.77553"
         height="21.388683"
         width="21.388683"
         id="rect4241-2-3-9-9-3"
         style="fill:#002255;fill-opacity:1;fill-rule:nonzero;stroke:none" />
      <rect
         transform="matrix(0.70710678,-0.70710678,0.70710678,0.70710678,0,0)"
         y="900.22766"
         x="232.77553"
         height="21.388683"
         width="21.388683"
         id="rect4241-2-3-1-8-3-5"
         style="fill:#002255;fill-opacity:1;fill-rule:nonzero;stroke:none" />
      <rect
         transform="matrix(0.70710678,-0.70710678,0.70710678,0.70710678,0,0)"
         y="923.68085"
         x="209.32227"
         height="21.388683"
         width="21.388683"
         id="rect4241-2-4-8-5-4-9"
         style="fill:#005c94;fill-opacity:1;fill-rule:nonzero;stroke:none" />
      <rect
         transform="matrix(0.70710678,-0.70710678,0.70710678,0.70710678,0,0)"
         y="923.68085"
         x="232.77553"
         height="21.388683"
         width="21.388683"
         id="rect4241-2-3-1-7-0-6-8"
         style="fill:#ff6d00;fill-opacity:1;fill-rule:nonzero;stroke:none" />
      <rect
         transform="matrix(0.70710678,-0.70710678,0.70710678,0.70710678,0,0)"
         y="900.22766"
         x="256.22876"
         height="21.388683"
         width="21.388683"
         id="rect4241-2-3-9-8-0-4"
         style="fill:#005c94;fill-opacity:1;fill-rule:nonzero;stroke:none" />
      <rect
         transform="matrix(0.70710678,-0.70710678,0.70710678,0.70710678,0,0)"
         y="923.68085"
         x="256.22876"
         height="21.388683"
         width="21.388683"
         id="rect4241-2-3-1-8-6-6-0"
         style="fill:#005c94;fill-opacity:1;fill-rule:nonzero;stroke:none" />
      <rect
         transform="matrix(0.70710678,-0.70710678,0.70710678,0.70710678,0,0)"
         y="947.13409"
         x="232.77553"
         height="21.388683"
         width="21.388683"
         id="rect4241-2-4-8-5-2-1-7"
         style="fill:#002255;fill-opacity:1;fill-rule:nonzero;stroke:none" />
    </g>
  </g>
</svg>
