<svg id="logo" version="1.1" viewBox="0 0 478 265" xmlns:cc="http://creativecommons.org/ns#" xmlns:dc="http://purl.org/dc/elements/1.1/" xmlns:rdf="http://www.w3.org/1999/02/22-rdf-syntax-ns#" xmlns="http://www.w3.org/2000/svg">
  <g transform="matrix(1,-1,1,1,0,160)">
    <rect fill="#005c94" height="50" width="50" x="0" y="0"/>
    <rect fill="#025" height="50" width="50" x="54" y="0"/>
    <rect fill="#005c94" height="50" width="50" x="108" y="0"/>

    <rect fill="#005c94" height="50" width="50" x="0" y="54"/>
    <rect fill="#025" height="50" width="50" x="54" y="54"/>
    <rect fill="#025" height="50" width="50" x="162" y="54"/>
    <rect fill="#005c94" height="50" width="50" x="108" y="54"/>

    <rect fill="#025" height="50" width="50" x="54" y="108"/>
    <rect fill="#025" height="50" width="50" x="108" y="108"/>
    <rect fill="#025" height="50" width="50" x="162" y="108"/>
    <rect fill="#005c94" height="50" width="50" x="216" y="108"/>

    <rect fill="#005c94" height="50" width="50" x="108" y="162"/>
    <rect fill="#005c94" height="50" width="50" x="216" y="162"/>
    <rect fill="#025" height="50" width="50" x="162" y="216"/>
    <rect class="square orange" fill="#ff6d00" height="50" width="50" x="162" y="162"/>
  </g>
</svg>
